<svg width="148" height="50" viewBox="0 0 1180 399" fill="none" xmlns="http://www.w3.org/2000/svg">
<path d="M432.693 285.232L392.022 275.746L404.138 254.757L432.693 285.232Z" fill="#007582"/>
<path d="M897.351 188.299L858.749 170.794L874.541 152.575L897.351 188.299Z" fill="#007582"/>
<path d="M277 162C522.523 -49.4618 650.035 -26.2005 867 162" stroke="#007582" stroke-width="24"/>
<path d="M278 146C325.674 215.697 351.97 238.654 398.5 265.5" stroke="#007582" stroke-width="24"/>
<g clip-path="url(#clip0_210_4464)">
<circle cx="582" cy="156" r="138" stroke="#007582" stroke-width="24"/>
<path d="M537.993 170.153L559.525 183.49V210.163L537.993 223.5L516.46 210.163V183.49L537.993 170.153Z" fill="#C18D61"/>
<path d="M560.121 129.077L581.654 142.414V169.087L560.121 182.424L538.588 169.087V142.414L560.121 129.077Z" fill="#AB7953"/>
<path d="M537.993 88L559.525 101.337V128.01L537.993 141.346L516.46 128.01V101.337L537.993 88Z" fill="#D1A97B"/>
<path d="M582.25 88L603.783 101.337V128.01L582.25 141.346L560.717 128.01V101.337L582.25 88Z" fill="#8D5B3C"/>
<path d="M626.508 88L648.04 101.337V128.01L626.508 141.346L604.975 128.01V101.337L626.508 88Z" fill="#573C2A"/>
<path d="M604.378 129.077L625.911 142.414V169.087L604.378 182.424L582.846 169.087V142.414L604.378 129.077Z" fill="#69462E"/>
<path d="M648.636 129.077L670.169 142.414V169.087L648.636 182.424L627.104 169.087V142.414L648.636 129.077Z" fill="#30221B"/>
<path d="M515.864 129.077L537.396 142.414V169.087L515.864 182.424L494.331 169.087V142.414L515.864 129.077Z" fill="#DFBC98"/>
<path d="M582.25 170.153L603.782 183.49V210.163L582.25 223.5L560.717 210.163V183.49L582.25 170.153Z" fill="#7E4E37"/>
<path d="M626.508 170.153L648.04 183.49V210.163L626.508 223.5L604.975 210.163V183.49L626.508 170.153Z" fill="#502E1F"/>
</g>
<path d="M42.8438 380.422C42.8438 379.016 42.625 377.766 42.1875 376.672C41.7812 375.578 41.0469 374.578 39.9844 373.672C38.9219 372.766 37.4219 371.891 35.4844 371.047C33.5781 370.172 31.1406 369.281 28.1719 368.375C24.9219 367.375 21.9219 366.266 19.1719 365.047C16.4531 363.797 14.0781 362.359 12.0469 360.734C10.0156 359.078 8.4375 357.188 7.3125 355.062C6.1875 352.906 5.625 350.422 5.625 347.609C5.625 344.828 6.20312 342.297 7.35938 340.016C8.54688 337.734 10.2188 335.766 12.375 334.109C14.5625 332.422 17.1406 331.125 20.1094 330.219C23.0781 329.281 26.3594 328.812 29.9531 328.812C35.0156 328.812 39.375 329.75 43.0312 331.625C46.7188 333.5 49.5469 336.016 51.5156 339.172C53.5156 342.328 54.5156 345.812 54.5156 349.625H42.8438C42.8438 347.375 42.3594 345.391 41.3906 343.672C40.4531 341.922 39.0156 340.547 37.0781 339.547C35.1719 338.547 32.75 338.047 29.8125 338.047C27.0312 338.047 24.7188 338.469 22.875 339.312C21.0312 340.156 19.6562 341.297 18.75 342.734C17.8438 344.172 17.3906 345.797 17.3906 347.609C17.3906 348.891 17.6875 350.062 18.2812 351.125C18.875 352.156 19.7812 353.125 21 354.031C22.2188 354.906 23.75 355.734 25.5938 356.516C27.4375 357.297 29.6094 358.047 32.1094 358.766C35.8906 359.891 39.1875 361.141 42 362.516C44.8125 363.859 47.1562 365.391 49.0312 367.109C50.9062 368.828 52.3125 370.781 53.25 372.969C54.1875 375.125 54.6562 377.578 54.6562 380.328C54.6562 383.203 54.0781 385.797 52.9219 388.109C51.7656 390.391 50.1094 392.344 47.9531 393.969C45.8281 395.562 43.2656 396.797 40.2656 397.672C37.2969 398.516 33.9844 398.938 30.3281 398.938C27.0469 398.938 23.8125 398.5 20.625 397.625C17.4688 396.75 14.5938 395.422 12 393.641C9.40625 391.828 7.34375 389.578 5.8125 386.891C4.28125 384.172 3.51562 381 3.51562 377.375H15.2812C15.2812 379.594 15.6562 381.484 16.4062 383.047C17.1875 384.609 18.2656 385.891 19.6406 386.891C21.0156 387.859 22.6094 388.578 24.4219 389.047C26.2656 389.516 28.2344 389.75 30.3281 389.75C33.0781 389.75 35.375 389.359 37.2188 388.578C39.0938 387.797 40.5 386.703 41.4375 385.297C42.375 383.891 42.8438 382.266 42.8438 380.422ZM314.85 375.781H326.569C326.194 380.25 324.944 384.234 322.819 387.734C320.694 391.203 317.709 393.938 313.866 395.938C310.022 397.938 305.35 398.938 299.85 398.938C295.631 398.938 291.834 398.188 288.459 396.688C285.084 395.156 282.194 393 279.788 390.219C277.381 387.406 275.538 384.016 274.256 380.047C273.006 376.078 272.381 371.641 272.381 366.734V361.062C272.381 356.156 273.022 351.719 274.303 347.75C275.616 343.781 277.491 340.391 279.928 337.578C282.366 334.734 285.288 332.562 288.694 331.062C292.131 329.562 295.991 328.812 300.272 328.812C305.709 328.812 310.303 329.812 314.053 331.812C317.803 333.812 320.709 336.578 322.772 340.109C324.866 343.641 326.147 347.688 326.616 352.25H314.897C314.584 349.312 313.897 346.797 312.834 344.703C311.803 342.609 310.272 341.016 308.241 339.922C306.209 338.797 303.553 338.234 300.272 338.234C297.584 338.234 295.241 338.734 293.241 339.734C291.241 340.734 289.569 342.203 288.225 344.141C286.881 346.078 285.866 348.469 285.178 351.312C284.522 354.125 284.194 357.344 284.194 360.969V366.734C284.194 370.172 284.491 373.297 285.084 376.109C285.709 378.891 286.647 381.281 287.897 383.281C289.178 385.281 290.803 386.828 292.772 387.922C294.741 389.016 297.1 389.562 299.85 389.562C303.194 389.562 305.897 389.031 307.959 387.969C310.053 386.906 311.631 385.359 312.694 383.328C313.788 381.266 314.506 378.75 314.85 375.781ZM702.381 398H687.802L687.896 388.672H702.381C706.599 388.672 710.131 387.75 712.974 385.906C715.849 384.062 718.006 381.422 719.443 377.984C720.912 374.547 721.646 370.453 721.646 365.703V362C721.646 358.312 721.224 355.047 720.381 352.203C719.568 349.359 718.349 346.969 716.724 345.031C715.131 343.094 713.162 341.625 710.818 340.625C708.506 339.625 705.834 339.125 702.802 339.125H687.521V329.75H702.802C707.334 329.75 711.474 330.516 715.224 332.047C718.974 333.547 722.209 335.719 724.927 338.562C727.677 341.406 729.787 344.812 731.256 348.781C732.724 352.75 733.459 357.188 733.459 362.094V365.703C733.459 370.609 732.724 375.047 731.256 379.016C729.787 382.984 727.677 386.391 724.927 389.234C722.177 392.047 718.896 394.219 715.084 395.75C711.302 397.25 707.068 398 702.381 398ZM694.318 329.75V398H682.552V329.75H694.318Z" fill="#007582"/>
<path d="M86.8481 326V398H75.5044V326H86.8481ZM118.348 347.281L96.27 371.75L84.1763 384.125L81.2231 374.562L90.3638 363.266L104.708 347.281H118.348ZM107.145 398L90.6919 374.188L97.8169 366.266L120.223 398H107.145ZM149.134 347.281V398H137.79V347.281H149.134ZM137.04 333.969C137.04 332.25 137.603 330.828 138.728 329.703C139.884 328.547 141.478 327.969 143.509 327.969C145.509 327.969 147.087 328.547 148.243 329.703C149.399 330.828 149.978 332.25 149.978 333.969C149.978 335.656 149.399 337.062 148.243 338.188C147.087 339.312 145.509 339.875 143.509 339.875C141.478 339.875 139.884 339.312 138.728 338.188C137.603 337.062 137.04 335.656 137.04 333.969ZM184.232 358.109V398H172.935V347.281H183.576L184.232 358.109ZM182.216 370.766L178.56 370.719C178.591 367.125 179.091 363.828 180.06 360.828C181.06 357.828 182.435 355.25 184.185 353.094C185.966 350.938 188.091 349.281 190.56 348.125C193.029 346.938 195.779 346.344 198.81 346.344C201.247 346.344 203.451 346.688 205.419 347.375C207.419 348.031 209.122 349.109 210.529 350.609C211.966 352.109 213.06 354.062 213.81 356.469C214.56 358.844 214.935 361.766 214.935 365.234V398H203.591V365.188C203.591 362.75 203.232 360.828 202.513 359.422C201.826 357.984 200.81 356.969 199.466 356.375C198.154 355.75 196.513 355.438 194.544 355.438C192.607 355.438 190.872 355.844 189.341 356.656C187.81 357.469 186.513 358.578 185.451 359.984C184.419 361.391 183.622 363.016 183.06 364.859C182.497 366.703 182.216 368.672 182.216 370.766ZM376.245 387.828V363.641C376.245 361.828 375.917 360.266 375.261 358.953C374.604 357.641 373.604 356.625 372.261 355.906C370.948 355.188 369.292 354.828 367.292 354.828C365.448 354.828 363.854 355.141 362.511 355.766C361.167 356.391 360.12 357.234 359.37 358.297C358.62 359.359 358.245 360.562 358.245 361.906H346.995C346.995 359.906 347.479 357.969 348.448 356.094C349.417 354.219 350.823 352.547 352.667 351.078C354.511 349.609 356.714 348.453 359.276 347.609C361.839 346.766 364.714 346.344 367.901 346.344C371.714 346.344 375.089 346.984 378.026 348.266C380.995 349.547 383.323 351.484 385.011 354.078C386.729 356.641 387.589 359.859 387.589 363.734V386.281C387.589 388.594 387.745 390.672 388.057 392.516C388.401 394.328 388.886 395.906 389.511 397.25V398H377.932C377.401 396.781 376.979 395.234 376.667 393.359C376.386 391.453 376.245 389.609 376.245 387.828ZM377.886 367.156L377.979 374.141H369.87C367.776 374.141 365.932 374.344 364.339 374.75C362.745 375.125 361.417 375.688 360.354 376.438C359.292 377.188 358.495 378.094 357.964 379.156C357.432 380.219 357.167 381.422 357.167 382.766C357.167 384.109 357.479 385.344 358.104 386.469C358.729 387.562 359.636 388.422 360.823 389.047C362.042 389.672 363.511 389.984 365.229 389.984C367.542 389.984 369.557 389.516 371.276 388.578C373.026 387.609 374.401 386.438 375.401 385.062C376.401 383.656 376.932 382.328 376.995 381.078L380.651 386.094C380.276 387.375 379.636 388.75 378.729 390.219C377.823 391.688 376.636 393.094 375.167 394.438C373.729 395.75 371.995 396.828 369.964 397.672C367.964 398.516 365.651 398.938 363.026 398.938C359.714 398.938 356.761 398.281 354.167 396.969C351.573 395.625 349.542 393.828 348.073 391.578C346.604 389.297 345.87 386.719 345.87 383.844C345.87 381.156 346.37 378.781 347.37 376.719C348.401 374.625 349.901 372.875 351.87 371.469C353.87 370.062 356.307 369 359.182 368.281C362.057 367.531 365.339 367.156 369.026 367.156H377.886ZM422.124 358.109V398H410.828V347.281H421.468L422.124 358.109ZM420.109 370.766L416.453 370.719C416.484 367.125 416.984 363.828 417.953 360.828C418.953 357.828 420.328 355.25 422.078 353.094C423.859 350.938 425.984 349.281 428.453 348.125C430.921 346.938 433.671 346.344 436.703 346.344C439.14 346.344 441.343 346.688 443.312 347.375C445.312 348.031 447.015 349.109 448.421 350.609C449.859 352.109 450.953 354.062 451.703 356.469C452.453 358.844 452.828 361.766 452.828 365.234V398H441.484V365.188C441.484 362.75 441.124 360.828 440.406 359.422C439.718 357.984 438.703 356.969 437.359 356.375C436.046 355.75 434.406 355.438 432.437 355.438C430.499 355.438 428.765 355.844 427.234 356.656C425.703 357.469 424.406 358.578 423.343 359.984C422.312 361.391 421.515 363.016 420.953 364.859C420.39 366.703 420.109 368.672 420.109 370.766ZM496.598 389.938C498.441 389.938 500.098 389.578 501.566 388.859C503.066 388.109 504.269 387.078 505.176 385.766C506.113 384.453 506.629 382.938 506.723 381.219H517.363C517.301 384.5 516.332 387.484 514.457 390.172C512.582 392.859 510.098 395 507.004 396.594C503.91 398.156 500.488 398.938 496.738 398.938C492.863 398.938 489.488 398.281 486.613 396.969C483.738 395.625 481.348 393.781 479.441 391.438C477.535 389.094 476.098 386.391 475.129 383.328C474.191 380.266 473.723 376.984 473.723 373.484V371.844C473.723 368.344 474.191 365.062 475.129 362C476.098 358.906 477.535 356.188 479.441 353.844C481.348 351.5 483.738 349.672 486.613 348.359C489.488 347.016 492.848 346.344 496.691 346.344C500.754 346.344 504.316 347.156 507.379 348.781C510.441 350.375 512.848 352.609 514.598 355.484C516.379 358.328 517.301 361.641 517.363 365.422H506.723C506.629 363.547 506.16 361.859 505.316 360.359C504.504 358.828 503.348 357.609 501.848 356.703C500.379 355.797 498.613 355.344 496.551 355.344C494.269 355.344 492.379 355.812 490.879 356.75C489.379 357.656 488.207 358.906 487.363 360.5C486.519 362.062 485.91 363.828 485.535 365.797C485.191 367.734 485.019 369.75 485.019 371.844V373.484C485.019 375.578 485.191 377.609 485.535 379.578C485.879 381.547 486.473 383.312 487.316 384.875C488.191 386.406 489.379 387.641 490.879 388.578C492.379 389.484 494.285 389.938 496.598 389.938ZM559.914 398.938C556.164 398.938 552.774 398.328 549.742 397.109C546.742 395.859 544.18 394.125 542.055 391.906C539.961 389.688 538.352 387.078 537.227 384.078C536.102 381.078 535.539 377.844 535.539 374.375V372.5C535.539 368.531 536.117 364.938 537.274 361.719C538.43 358.5 540.039 355.75 542.102 353.469C544.164 351.156 546.602 349.391 549.414 348.172C552.227 346.953 555.274 346.344 558.555 346.344C562.18 346.344 565.352 346.953 568.071 348.172C570.789 349.391 573.039 351.109 574.821 353.328C576.633 355.516 577.977 358.125 578.852 361.156C579.758 364.188 580.211 367.531 580.211 371.188V376.016H541.024V367.906H569.055V367.016C568.992 364.984 568.586 363.078 567.836 361.297C567.117 359.516 566.008 358.078 564.508 356.984C563.008 355.891 561.008 355.344 558.508 355.344C556.633 355.344 554.961 355.75 553.492 356.562C552.055 357.344 550.852 358.484 549.883 359.984C548.914 361.484 548.164 363.297 547.633 365.422C547.133 367.516 546.883 369.875 546.883 372.5V374.375C546.883 376.594 547.18 378.656 547.774 380.562C548.399 382.438 549.305 384.078 550.492 385.484C551.68 386.891 553.117 388 554.805 388.812C556.492 389.594 558.414 389.984 560.571 389.984C563.289 389.984 565.711 389.438 567.836 388.344C569.961 387.25 571.805 385.703 573.367 383.703L579.321 389.469C578.227 391.062 576.805 392.594 575.055 394.062C573.305 395.5 571.164 396.672 568.633 397.578C566.133 398.484 563.227 398.938 559.914 398.938ZM611.888 356.938V398H600.591V347.281H611.372L611.888 356.938ZM627.403 346.953L627.309 357.453C626.622 357.328 625.872 357.234 625.059 357.172C624.278 357.109 623.497 357.078 622.716 357.078C620.778 357.078 619.075 357.359 617.606 357.922C616.138 358.453 614.903 359.234 613.903 360.266C612.934 361.266 612.184 362.484 611.653 363.922C611.122 365.359 610.809 366.969 610.716 368.75L608.138 368.938C608.138 365.75 608.45 362.797 609.075 360.078C609.7 357.359 610.638 354.969 611.888 352.906C613.169 350.844 614.763 349.234 616.669 348.078C618.606 346.922 620.841 346.344 623.372 346.344C624.059 346.344 624.794 346.406 625.575 346.531C626.388 346.656 626.997 346.797 627.403 346.953ZM778.026 398.938C774.276 398.938 770.885 398.328 767.854 397.109C764.854 395.859 762.291 394.125 760.166 391.906C758.073 389.688 756.463 387.078 755.338 384.078C754.213 381.078 753.651 377.844 753.651 374.375V372.5C753.651 368.531 754.229 364.938 755.385 361.719C756.541 358.5 758.151 355.75 760.213 353.469C762.276 351.156 764.713 349.391 767.526 348.172C770.338 346.953 773.385 346.344 776.666 346.344C780.291 346.344 783.463 346.953 786.182 348.172C788.901 349.391 791.151 351.109 792.932 353.328C794.744 355.516 796.088 358.125 796.963 361.156C797.869 364.188 798.323 367.531 798.323 371.188V376.016H759.135V367.906H787.166V367.016C787.104 364.984 786.698 363.078 785.948 361.297C785.229 359.516 784.119 358.078 782.619 356.984C781.119 355.891 779.119 355.344 776.619 355.344C774.744 355.344 773.073 355.75 771.604 356.562C770.166 357.344 768.963 358.484 767.994 359.984C767.026 361.484 766.276 363.297 765.744 365.422C765.244 367.516 764.994 369.875 764.994 372.5V374.375C764.994 376.594 765.291 378.656 765.885 380.562C766.51 382.438 767.416 384.078 768.604 385.484C769.791 386.891 771.229 388 772.916 388.812C774.604 389.594 776.526 389.984 778.682 389.984C781.401 389.984 783.823 389.438 785.948 388.344C788.073 387.25 789.916 385.703 791.479 383.703L797.432 389.469C796.338 391.062 794.916 392.594 793.166 394.062C791.416 395.5 789.276 396.672 786.744 397.578C784.244 398.484 781.338 398.938 778.026 398.938ZM841.905 347.281V355.531H813.311V347.281H841.905ZM821.561 334.859H832.858V383.984C832.858 385.547 833.077 386.75 833.514 387.594C833.983 388.406 834.624 388.953 835.436 389.234C836.249 389.516 837.202 389.656 838.296 389.656C839.077 389.656 839.827 389.609 840.546 389.516C841.264 389.422 841.843 389.328 842.28 389.234L842.327 397.859C841.389 398.141 840.296 398.391 839.046 398.609C837.827 398.828 836.421 398.938 834.827 398.938C832.233 398.938 829.936 398.484 827.936 397.578C825.936 396.641 824.374 395.125 823.249 393.031C822.124 390.938 821.561 388.156 821.561 384.688V334.859ZM884.503 398.938C880.753 398.938 877.362 398.328 874.331 397.109C871.331 395.859 868.769 394.125 866.644 391.906C864.55 389.688 862.941 387.078 861.816 384.078C860.691 381.078 860.128 377.844 860.128 374.375V372.5C860.128 368.531 860.706 364.938 861.862 361.719C863.019 358.5 864.628 355.75 866.691 353.469C868.753 351.156 871.191 349.391 874.003 348.172C876.816 346.953 879.862 346.344 883.144 346.344C886.769 346.344 889.941 346.953 892.659 348.172C895.378 349.391 897.628 351.109 899.409 353.328C901.222 355.516 902.566 358.125 903.441 361.156C904.347 364.188 904.8 367.531 904.8 371.188V376.016H865.612V367.906H893.644V367.016C893.581 364.984 893.175 363.078 892.425 361.297C891.706 359.516 890.597 358.078 889.097 356.984C887.597 355.891 885.597 355.344 883.097 355.344C881.222 355.344 879.55 355.75 878.081 356.562C876.644 357.344 875.441 358.484 874.472 359.984C873.503 361.484 872.753 363.297 872.222 365.422C871.722 367.516 871.472 369.875 871.472 372.5V374.375C871.472 376.594 871.769 378.656 872.362 380.562C872.987 382.438 873.894 384.078 875.081 385.484C876.269 386.891 877.706 388 879.394 388.812C881.081 389.594 883.003 389.984 885.159 389.984C887.878 389.984 890.3 389.438 892.425 388.344C894.55 387.25 896.394 385.703 897.956 383.703L903.909 389.469C902.816 391.062 901.394 392.594 899.644 394.062C897.894 395.5 895.753 396.672 893.222 397.578C890.722 398.484 887.816 398.938 884.503 398.938ZM945.851 389.938C947.695 389.938 949.351 389.578 950.82 388.859C952.32 388.109 953.523 387.078 954.429 385.766C955.367 384.453 955.883 382.938 955.976 381.219H966.617C966.554 384.5 965.586 387.484 963.711 390.172C961.836 392.859 959.351 395 956.258 396.594C953.164 398.156 949.742 398.938 945.992 398.938C942.117 398.938 938.742 398.281 935.867 396.969C932.992 395.625 930.601 393.781 928.695 391.438C926.789 389.094 925.351 386.391 924.383 383.328C923.445 380.266 922.976 376.984 922.976 373.484V371.844C922.976 368.344 923.445 365.062 924.383 362C925.351 358.906 926.789 356.188 928.695 353.844C930.601 351.5 932.992 349.672 935.867 348.359C938.742 347.016 942.101 346.344 945.945 346.344C950.008 346.344 953.57 347.156 956.633 348.781C959.695 350.375 962.101 352.609 963.851 355.484C965.633 358.328 966.554 361.641 966.617 365.422H955.976C955.883 363.547 955.414 361.859 954.57 360.359C953.758 358.828 952.601 357.609 951.101 356.703C949.633 355.797 947.867 355.344 945.804 355.344C943.523 355.344 941.633 355.812 940.133 356.75C938.633 357.656 937.461 358.906 936.617 360.5C935.773 362.062 935.164 363.828 934.789 365.797C934.445 367.734 934.273 369.75 934.273 371.844V373.484C934.273 375.578 934.445 377.609 934.789 379.578C935.133 381.547 935.726 383.312 936.57 384.875C937.445 386.406 938.633 387.641 940.133 388.578C941.633 389.484 943.539 389.938 945.851 389.938ZM1010.06 347.281V355.531H981.465V347.281H1010.06ZM989.715 334.859H1001.01V383.984C1001.01 385.547 1001.23 386.75 1001.67 387.594C1002.14 388.406 1002.78 388.953 1003.59 389.234C1004.4 389.516 1005.36 389.656 1006.45 389.656C1007.23 389.656 1007.98 389.609 1008.7 389.516C1009.42 389.422 1010 389.328 1010.43 389.234L1010.48 397.859C1009.54 398.141 1008.45 398.391 1007.2 398.609C1005.98 398.828 1004.57 398.938 1002.98 398.938C1000.39 398.938 998.09 398.484 996.09 397.578C994.09 396.641 992.528 395.125 991.403 393.031C990.278 390.938 989.715 388.156 989.715 384.688V334.859ZM1042.39 347.281V398H1031.05V347.281H1042.39ZM1030.3 333.969C1030.3 332.25 1030.86 330.828 1031.98 329.703C1033.14 328.547 1034.73 327.969 1036.77 327.969C1038.77 327.969 1040.34 328.547 1041.5 329.703C1042.66 330.828 1043.23 332.25 1043.23 333.969C1043.23 335.656 1042.66 337.062 1041.5 338.188C1040.34 339.312 1038.77 339.875 1036.77 339.875C1034.73 339.875 1033.14 339.312 1031.98 338.188C1030.86 337.062 1030.3 335.656 1030.3 333.969ZM1064.13 373.203V372.125C1064.13 368.469 1064.66 365.078 1065.72 361.953C1066.79 358.797 1068.32 356.062 1070.32 353.75C1072.35 351.406 1074.82 349.594 1077.72 348.312C1080.66 347 1083.97 346.344 1087.66 346.344C1091.38 346.344 1094.69 347 1097.6 348.312C1100.54 349.594 1103.02 351.406 1105.05 353.75C1107.08 356.062 1108.63 358.797 1109.69 361.953C1110.76 365.078 1111.29 368.469 1111.29 372.125V373.203C1111.29 376.859 1110.76 380.25 1109.69 383.375C1108.63 386.5 1107.08 389.234 1105.05 391.578C1103.02 393.891 1100.55 395.703 1097.65 397.016C1094.74 398.297 1091.44 398.938 1087.76 398.938C1084.04 398.938 1080.71 398.297 1077.77 397.016C1074.86 395.703 1072.4 393.891 1070.36 391.578C1068.33 389.234 1066.79 386.5 1065.72 383.375C1064.66 380.25 1064.13 376.859 1064.13 373.203ZM1075.43 372.125V373.203C1075.43 375.484 1075.66 377.641 1076.13 379.672C1076.6 381.703 1077.33 383.484 1078.33 385.016C1079.33 386.547 1080.61 387.75 1082.18 388.625C1083.74 389.5 1085.6 389.938 1087.76 389.938C1089.85 389.938 1091.66 389.5 1093.19 388.625C1094.76 387.75 1096.04 386.547 1097.04 385.016C1098.04 383.484 1098.77 381.703 1099.24 379.672C1099.74 377.641 1099.99 375.484 1099.99 373.203V372.125C1099.99 369.875 1099.74 367.75 1099.24 365.75C1098.77 363.719 1098.02 361.922 1096.99 360.359C1095.99 358.797 1094.71 357.578 1093.15 356.703C1091.61 355.797 1089.79 355.344 1087.66 355.344C1085.54 355.344 1083.69 355.797 1082.13 356.703C1080.6 357.578 1079.33 358.797 1078.33 360.359C1077.33 361.922 1076.6 363.719 1076.13 365.75C1075.66 367.75 1075.43 369.875 1075.43 372.125ZM1143.48 358.109V398H1132.18V347.281H1142.82L1143.48 358.109ZM1141.46 370.766L1137.81 370.719C1137.84 367.125 1138.34 363.828 1139.31 360.828C1140.31 357.828 1141.68 355.25 1143.43 353.094C1145.21 350.938 1147.34 349.281 1149.81 348.125C1152.28 346.938 1155.03 346.344 1158.06 346.344C1160.49 346.344 1162.7 346.688 1164.67 347.375C1166.67 348.031 1168.37 349.109 1169.78 350.609C1171.21 352.109 1172.31 354.062 1173.06 356.469C1173.81 358.844 1174.18 361.766 1174.18 365.234V398H1162.84V365.188C1162.84 362.75 1162.48 360.828 1161.76 359.422C1161.07 357.984 1160.06 356.969 1158.71 356.375C1157.4 355.75 1155.76 355.438 1153.79 355.438C1151.85 355.438 1150.12 355.844 1148.59 356.656C1147.06 357.469 1145.76 358.578 1144.7 359.984C1143.67 361.391 1142.87 363.016 1142.31 364.859C1141.74 366.703 1141.46 368.672 1141.46 370.766Z" fill="#212121"/>
<defs>
<clipPath id="clip0_210_4464">
<rect x="432" y="6" width="300" height="300" rx="150" fill="white"/>
</clipPath>
</defs>
</svg>
